<?xml version="1.0" encoding="UTF-8"?>
<svg xmlns="http://www.w3.org/2000/svg" xmlns:xlink="http://www.w3.org/1999/xlink" viewBox="0 0 100 100"><defs><style>.cls-1{fill:none;}.cls-2{isolation:isolate;}.cls-3{fill:#fff;}.cls-4{clip-path:url(#clip-path);}.cls-5{fill:#744662;}.cls-6{fill:#ad859d;}.cls-7{fill:#966c86;}.cls-8{mix-blend-mode:multiply;opacity:0.5;}.cls-9{fill:#61354f;}</style><clipPath id="clip-path"><rect class="cls-1" width="100" height="100"/></clipPath></defs><g class="cls-2"><g id="Layer_2" data-name="Layer 2"><g id="Layer_1-2" data-name="Layer 1"><path class="cls-3" d="M50,100A50,50,0,1,0,0,50a50,50,0,0,0,50,50"/><path class="cls-5" d="M67,36.54a3.53,3.53,0,0,1-3.52,3.53H59.93V36.54a3.53,3.53,0,0,1,7.05,0M59.93,59.93h3.53a3.53,3.53,0,1,1-3.53,3.53v-.54h0Zm14-23.39a10.48,10.48,0,0,0-21,0v3.53l-1.87,3.47L53,47v6H47l-1.87,3.48L47,59.93h6v3h0v.54A10.48,10.48,0,1,0,63.46,53H59.93V47h3.53A10.48,10.48,0,0,0,73.93,36.54"/><path class="cls-6" d="M40.07,40.07H36.54a3.53,3.53,0,1,1,3.53-3.53v3.53Zm-3,19.86h3v3.53a3.53,3.53,0,1,1-3.53-3.53ZM53,47v-7H47V36.54A10.48,10.48,0,1,0,36.54,47h3.53v3h0v3H36.54A10.48,10.48,0,1,0,47,63.46V50h0V47Z"/><polygon class="cls-7" points="40.56 47.19 40.06 47.32 40.06 50.31 47.01 50.31 47.01 47.19 40.56 47.19"/><polygon class="cls-7" points="36.95 59.54 37.08 60.04 40.06 60.04 40.06 53.09 36.95 53.09 36.95 59.54"/><g class="cls-8"><polygon class="cls-9" points="53.4 60.04 52.9 60.17 52.9 63.15 59.85 63.15 59.85 60.04 53.4 60.04"/></g><g class="cls-8"><polygon class="cls-9" points="59.85 46.6 59.98 47.1 62.97 47.1 62.97 40.15 59.85 40.15 59.85 46.6"/></g></g></g></g></svg>
