<?xml version="1.0" encoding="UTF-8"?>
<svg xmlns="http://www.w3.org/2000/svg" xmlns:xlink="http://www.w3.org/1999/xlink" viewBox="0 0 100 100"><defs><style>.cls-1{fill:none;}.cls-2{fill:#fff;}.cls-3{clip-path:url(#clip-path);}.cls-4{fill:#b692a8;}.cls-5{fill:#825671;}.cls-6{fill:#87c4bf;}.cls-7{fill:#42918b;}.cls-8{fill:#eb8380;}.cls-9{fill:#de5653;}.cls-10{fill:#f9cfd0;}.cls-11{fill:#f6b6b3;}.cls-12{fill:#e2d0de;}.cls-13{fill:#d0b6c8;}.cls-14{fill:#ceebe9;}.cls-15{fill:#b2dcd9;}</style><clipPath id="clip-path"><rect class="cls-1" width="100" height="100"/></clipPath></defs><g id="Layer_2" data-name="Layer 2"><g id="Layer_1-2" data-name="Layer 1"><path class="cls-2" d="M50,100A50,50,0,1,0,0,50a50,50,0,0,0,50,50"/><path class="cls-4" d="M35.46,68.93,44,64l-3.74-6.5L36.53,51l-8.6,5a22.5,22.5,0,0,1-.38-4.1,22.07,22.07,0,0,1,2.18-9.55l-6.5-3.77a30.12,30.12,0,0,0,24.9,43.38v-7.7a22.32,22.32,0,0,1-12.67-5.3"/><path class="cls-5" d="M48.13,81.93v-7.7a22.32,22.32,0,0,1-12.67-5.3L44,64l-3.74-6.5L24.09,66.83a30,30,0,0,0,24,15.1"/><path class="cls-6" d="M76.78,38.58l-6.5,3.77a22,22,0,0,1,2.17,9.52A22.69,22.69,0,0,1,72.07,56l-8.6-5L59.73,57.5,56,64l8.56,4.93a22.32,22.32,0,0,1-12.68,5.3v7.7A30.27,30.27,0,0,0,79.94,51.87a29.51,29.51,0,0,0-3.16-13.29"/><path class="cls-7" d="M76.78,38.58l-6.5,3.77a22,22,0,0,1,2.17,9.52A22.69,22.69,0,0,1,72.07,56l-8.6-5L59.73,57.5l16.18,9.33a29.66,29.66,0,0,0,.87-28.25"/><path class="cls-8" d="M50,21.93A29.83,29.83,0,0,0,25.08,35.29l6.51,3.78a22.39,22.39,0,0,1,10.93-8.34v9.91h15V30.73a22.17,22.17,0,0,1,10.93,8.38l6.51-3.78C70.26,27.81,60.8,21.93,50,21.93"/><path class="cls-9" d="M57.48,30.73a22.17,22.17,0,0,1,10.93,8.38l6.51-3.78C70.26,27.81,60.8,21.93,50,21.93V40.64h7.48Z"/><path class="cls-10" d="M50,18.07a5.71,5.71,0,0,0-5.61,5.73,5.61,5.61,0,1,0,11.22,0A5.71,5.71,0,0,0,50,18.07"/><path class="cls-11" d="M55.61,23.8A5.71,5.71,0,0,0,50,18.07V29.42a5.62,5.62,0,0,0,5.61-5.62"/><path class="cls-12" d="M30.83,62.94a5.67,5.67,0,0,0-7.63-2.08,5.61,5.61,0,1,0,5.61,9.72,5.54,5.54,0,0,0,2-7.64"/><path class="cls-13" d="M28.81,70.58a5.54,5.54,0,0,0,2-7.64l-9.69,5.58a5.62,5.62,0,0,0,7.67,2.06"/><path class="cls-14" d="M76.8,60.86a5.61,5.61,0,1,0,2.06,7.66,5.63,5.63,0,0,0-2.06-7.66"/><path class="cls-15" d="M76.8,60.86a5.63,5.63,0,0,0-7.67,2.06l9.73,5.6a5.61,5.61,0,0,0-2.06-7.66"/></g></g></svg>
