<?xml version="1.0" encoding="UTF-8"?>
<svg xmlns="http://www.w3.org/2000/svg" viewBox="0 0 100 100"><defs><style>.cls-1{fill:#fff;}.cls-2{fill:#cfd0c8;}.cls-3{fill:#87c4bf;}.cls-4{fill:#58a09b;}.cls-5{fill:#42918b;}</style></defs><g id="Layer_2" data-name="Layer 2"><g id="Layer_1-2" data-name="Layer 1"><path class="cls-1" d="M50,100A50,50,0,1,0,0,50a50,50,0,0,0,50,50"/><path class="cls-2" d="M32.7,68.29H13.12A12.33,12.33,0,0,1,24.55,56a8.22,8.22,0,1,1,1.7,0,12.35,12.35,0,0,1,8.44,4.23,17.17,17.17,0,0,0-2,8"/><path class="cls-2" d="M86.88,68.29H67.3a17.17,17.17,0,0,0-2-8A12.35,12.35,0,0,1,73.75,56a8.21,8.21,0,1,1,1.7,0A12.33,12.33,0,0,1,86.88,68.29"/><path class="cls-3" d="M51.2,51a11.57,11.57,0,1,0-2.4,0A17.35,17.35,0,0,0,32.7,68.29H67.3A17.35,17.35,0,0,0,51.2,51"/><path class="cls-4" d="M67.3,68.29H49.38V39.53H61.57v0A11.57,11.57,0,0,1,51.2,51h0A17.35,17.35,0,0,1,67.3,68.29"/><path class="cls-5" d="M61.57,39.53H38.43a11.57,11.57,0,0,1,23.14,0v0"/></g></g></svg>
