<?xml version="1.0" encoding="UTF-8"?>
<svg xmlns="http://www.w3.org/2000/svg" xmlns:xlink="http://www.w3.org/1999/xlink" viewBox="0 0 100 100"><defs><style>.cls-1{fill:none;}.cls-2{fill:#fff;}.cls-3{clip-path:url(#clip-path);}.cls-4{fill:#83af73;}.cls-5{fill:#51893e;}.cls-6{fill:#d4d5ce;}.cls-7{fill:#b0b2a5;}</style><clipPath id="clip-path"><rect class="cls-1" width="100" height="100"/></clipPath></defs><g id="Layer_2" data-name="Layer 2"><g id="Layer_1-2" data-name="Layer 1"><path class="cls-2" d="M50,100A50,50,0,1,0,0,50a50,50,0,0,0,50,50"/><path class="cls-4" d="M60.78,55.36,52.59,73.28H30.54L25.31,55.36a9.56,9.56,0,0,1,9.55-9.54H51.23a9.56,9.56,0,0,1,9.55,9.54"/><path class="cls-5" d="M51.23,45.82H43.05V73.28h9.54l8.19-17.92a9.56,9.56,0,0,0-9.55-9.54"/><rect class="cls-6" x="52.59" y="55.36" width="8.18" height="17.91"/><rect class="cls-6" x="25.31" y="55.36" width="8.18" height="17.91"/><path class="cls-6" d="M43.05,45.82a9.55,9.55,0,1,1,9.54-9.55,9.56,9.56,0,0,1-9.54,9.55"/><path class="cls-4" d="M74.11,26.72A5.89,5.89,0,0,0,69,30.13a5.68,5.68,0,0,0-10.86,2.8c0,4.54,4.39,7.22,10.44,12.52l.42.37.42-.37c6.06-5.3,10.44-8,10.44-12.52a5.89,5.89,0,0,0-5.77-6.21"/><path class="cls-5" d="M79.88,32.93c0,4.54-4.38,7.22-10.44,12.52l-.42.37V30.13a5.68,5.68,0,0,1,10.86,2.8"/><path class="cls-7" d="M52.59,36.27a9.56,9.56,0,0,0-9.54-9.55v19.1a9.55,9.55,0,0,0,9.54-9.55"/></g></g></svg>
