<?xml version="1.0" encoding="UTF-8"?>
<svg xmlns="http://www.w3.org/2000/svg" xmlns:xlink="http://www.w3.org/1999/xlink" viewBox="0 0 100 100"><defs><style>.cls-1{fill:none;}.cls-2{fill:#fff;}.cls-3{clip-path:url(#clip-path);}.cls-4{fill:#7dbeba;}.cls-5{fill:#51893e;}.cls-6{fill:#f6b6b3;}.cls-7{fill:#e8d1c1;}.cls-8{fill:#e6e7e2;}.cls-9{fill:#d4d5ce;}.cls-10{fill:#7db168;}.cls-11{fill:#8fbe7b;}.cls-12{fill:#bfc1b6;}</style><clipPath id="clip-path"><rect class="cls-1" width="100" height="100"/></clipPath></defs><g id="Layer_2" data-name="Layer 2"><g id="Layer_1-2" data-name="Layer 1"><path class="cls-2" d="M50,100A50,50,0,1,0,0,50a50,50,0,0,0,50,50"/><path class="cls-4" d="M43.41,50.84,39.14,42a15.7,15.7,0,0,1,4.11-18.92,94.88,94.88,0,0,0,9.56-9l.75-.83,1.75,2.31a30.12,30.12,0,0,1,4.78,9Z"/><path class="cls-4" d="M69.49,24.25l-.57-2.85C66.11,28,58.9,31.55,54.77,36.12A112.15,112.15,0,0,0,43.41,50.84h4.28c19,0,24.56-12.84,21.8-26.59"/><path class="cls-5" d="M43.41,50.84,39.14,42a15.7,15.7,0,0,1,4.11-18.92,94.88,94.88,0,0,0,9.56-9l.75-.83,1.75,2.31a30.12,30.12,0,0,1,4.78,9Z"/><path class="cls-5" d="M69.49,24.25l-.57-2.85C66.11,28,58.9,31.55,54.77,36.12A112.15,112.15,0,0,0,43.41,50.84h4.28c19,0,24.56-12.84,21.8-26.59"/><path class="cls-6" d="M77.24,57.51A5.24,5.24,0,0,0,70,57.14l-11.8,9.77H56.75V76.7L78.33,58.83l-1.09-1.32"/><path class="cls-7" d="M77.24,57.51A5.24,5.24,0,0,0,70,57.14l-11.8,9.77H56.75V76.7L78.33,58.83l-1.09-1.32"/><path class="cls-8" d="M77.24,57.51A5.24,5.24,0,0,0,70,57.14l-11.8,9.77h-13V63.59H58.41A6.71,6.71,0,0,0,51.77,57H47.48c-.34-.23-14.33-.22-14.66,0H28.31L25,59.72V73.55h8.13l6.64,3.32H56.54l.21-.17L78.33,58.83l-1.09-1.32"/><path class="cls-9" d="M77.24,57.51A5.24,5.24,0,0,0,70,57.14l-11.8,9.77H56.75V76.7L78.33,58.83l-1.09-1.32"/><path class="cls-9" d="M77.24,57.51A5.24,5.24,0,0,0,70,57.14l-11.8,9.77h-13V63.59H58.41A6.71,6.71,0,0,0,51.77,57H47.48c-.34-.23-14.33-.22-14.66,0H28.31L25,59.72V73.55h8.13l6.64,3.32H56.54l.21-.17L78.33,58.83l-1.09-1.32"/><rect class="cls-10" x="21.67" y="56.95" width="6.64" height="19.92"/><path class="cls-11" d="M68.92,21.4l-1,.42q-3.84,1.53-7.8,2.68c-1.57.47-3.15.89-4.75,1.28A15.72,15.72,0,0,0,43.41,41v9.81S61.2,39.62,68.92,21.4"/><path class="cls-12" d="M77.24,57.51A5.24,5.24,0,0,0,70,57.14l-11.8,9.77H56.75V76.7L78.33,58.83l-1.09-1.32"/></g></g></svg>
