<?xml version="1.0" encoding="UTF-8"?>
<svg xmlns="http://www.w3.org/2000/svg" xmlns:xlink="http://www.w3.org/1999/xlink" viewBox="0 0 100 100"><defs><style>.cls-1{fill:none;}.cls-2{fill:#fff;}.cls-3{clip-path:url(#clip-path);}.cls-4{fill:#d4d5ce;}.cls-5{fill:#b0b2a5;}.cls-6{fill:#744662;}.cls-7{fill:#ad859d;}</style><clipPath id="clip-path"><rect class="cls-1" width="100" height="100"/></clipPath></defs><g id="Layer_2" data-name="Layer 2"><g id="Layer_1-2" data-name="Layer 1"><path class="cls-2" d="M50,100A50,50,0,1,0,0,50a50,50,0,0,0,50,50"/><path class="cls-4" d="M45.19,52.41l15-8.64L53.41,32.34l-4.89,2.52a20.44,20.44,0,0,0-2.38-1.31V27H31.6v6.55a20.31,20.31,0,0,0-2.37,1.31l-4.9-2.52-7.27,12.6,5,2.57c0,.43-.14.87-.14,1.3s.1.88.14,1.31l-5,2.57,6.91,12,6.26-3.61,8.6-5a7.26,7.26,0,1,1,6.36-3.67"/><path class="cls-5" d="M60.16,43.77,53.41,32.34l-4.89,2.52a20.44,20.44,0,0,0-2.38-1.31V27H38.87V41.54a7.28,7.28,0,0,1,6.32,10.87Z"/><path class="cls-6" d="M78.84,50l-4.25-3.36L27.12,74.09a5.24,5.24,0,0,0,7.3,2L68.19,56.38a13.39,13.39,0,0,0,13.37.46A13.23,13.23,0,0,0,87.9,44.6Z"/><path class="cls-7" d="M74.7,46.77l-.17-.13-.68-5.21,9.07-5.22a12.34,12.34,0,0,0-13.6-.45A12.63,12.63,0,0,0,63,47.32L29,66.81a5.09,5.09,0,0,0-1.79,7.39Z"/></g></g></svg>
