<?xml version="1.0" encoding="UTF-8"?>
<?xml version="1.0" encoding="utf-8"?>
<!-- Generator: Adobe Illustrator 26.0.1, SVG Export Plug-In . SVG Version: 6.00 Build 0)  -->
<svg version="1.1" id="Layer_1" xmlns="http://www.w3.org/2000/svg" xmlns:xlink="http://www.w3.org/1999/xlink" x="0px" y="0px"
	 viewBox="0 0 100 100" style="enable-background:new 0 0 100 100;" xml:space="preserve">
<style type="text/css">
	.st0{fill:#FFFFFF;}
	.st1{fill:#BFC1B6;}
	.st2{fill:#787B69;}
	.st3{fill:#DADCD4;}
	.st4{fill:#EB8380;}
	.st5{fill:#D33F3D;}
</style>
<g id="Layer_2_00000108295082737978776200000007104101013605312654_">
	<g id="Layer_1-2">
		<g id="Layer_2-2">
			<g id="Layer_1-2-2">
				<path class="st0" d="M50,100c27.6,0,50-22.4,50-50S77.6,0,50,0S0,22.4,0,50S22.4,100,50,100"/>
				<polyline class="st1" points="62,72.4 72.6,58.2 69.3,49 30.7,49 27.5,58.1 62,72.4 				"/>
				<polyline class="st2" points="50,49 50,67.4 62,72.4 72.6,58.2 69.3,49 50,49 				"/>
				<polygon class="st1" points="52.9,77.9 62,72.4 35.6,62 37.4,77.9 52.9,77.9 				"/>
				<polygon class="st2" points="50,77.9 52.9,77.9 62,72.4 50,67.7 50,77.9 				"/>
				<polygon class="st1" points="35.6,62 26.3,61.5 20.4,77.9 33.8,77.9 35.6,62 				"/>
				<polygon class="st2" points="58,77.9 79.6,77.9 73.9,62 69.8,63.5 58,77.9 				"/>
				<polygon class="st3" points="58,77.9 73.9,62 72.6,58.2 62,68.8 27.5,58.1 26.3,61.5 33.8,63.8 33.8,77.9 37.4,77.9 37.4,65
					59.1,71.7 52.9,77.9 58,77.9 				"/>
				<polygon class="st3" points="62,68.8 50,65.1 50,68.8 59.1,71.7 52.9,77.9 58,77.9 73.9,62 72.6,58.2 62,68.8 				"/>
				<path class="st4" d="M50,60.5c0,0-15.4-17.1-15.4-28.6c0-8.5,6.9-15.4,15.4-15.4V60.5"/>
				<path class="st5" d="M50,60.5v-44c8.5,0,15.4,6.9,15.4,15.4c0,5.3-3.2,11.7-6.7,17.1C56.1,53,53.2,56.8,50,60.5L50,60.5"/>
				<path class="st0" d="M50,26.3c-3,0.2-5.4,2.8-5.2,5.8c0.2,2.8,2.4,5,5.2,5.2V26.3z"/>
				<path class="st3" d="M55.5,31.8c0-3-2.4-5.5-5.4-5.5c0,0,0,0,0,0H50v11C53,37.3,55.5,34.9,55.5,31.8
					C55.5,31.9,55.5,31.9,55.5,31.8L55.5,31.8L55.5,31.8z"/>
			</g>
		</g>
	</g>
</g>
</svg>
