<?xml version="1.0" encoding="UTF-8"?>
<svg xmlns="http://www.w3.org/2000/svg" viewBox="0 0 100 100"><defs><style>.cls-1{fill:#fff;}.cls-2{fill:#dadcd4;}.cls-3{fill:#f6b6b3;}.cls-4{fill:#f9cfd0;}.cls-5{fill:#466977;}.cls-6{fill:#de5653;}.cls-7{fill:#d33f3d;}</style></defs><g id="Layer_2" data-name="Layer 2"><g id="Layer_1-2" data-name="Layer 1"><path class="cls-1" d="M50,100A50,50,0,1,0,0,50a50,50,0,0,0,50,50"/><path class="cls-2" d="M44.18,24.64a4.84,4.84,0,0,0-4.86,4.85V70a4.86,4.86,0,0,0,4.86,4.85H73.29A4.85,4.85,0,0,0,78.15,70V36.44l-11.8-11.8Z"/><rect class="cls-3" x="32.79" y="27.64" width="10.09" height="41.28"/><polygon class="cls-4" points="35.64 22.49 32.79 27.64 42.88 27.64 40.03 22.49 35.64 22.49"/><polygon class="cls-3" points="40.03 22.49 37.81 22.49 37.81 27.64 42.88 27.64 40.03 22.49"/><polygon class="cls-5" points="37.83 18.53 35.64 22.49 40.03 22.49 37.83 18.53"/><rect class="cls-6" x="21.85" y="55.77" width="4.67" height="4.67"/><rect class="cls-6" x="21.85" y="69.79" width="4.67" height="4.67"/><rect class="cls-6" x="21.85" y="41.76" width="4.67" height="4.67"/><path class="cls-6" d="M59.23,34.75h-28a4.68,4.68,0,0,0-4.68,4.67v2.34H31.2v4.67H26.52v9.34H31.2v4.68H26.52v9.34H31.2v4.67H26.52V76.8a4.85,4.85,0,0,0,4.68,4.67h28A4.85,4.85,0,0,0,63.9,76.8V39.42A4.85,4.85,0,0,0,59.23,34.75Z"/><path class="cls-7" d="M63.9,76.8V39.42a4.85,4.85,0,0,0-4.67-4.67H44.82V81.47H59.23A4.85,4.85,0,0,0,63.9,76.8Z"/></g></g></svg>
