<?xml version="1.0" encoding="UTF-8"?>
<svg xmlns="http://www.w3.org/2000/svg" xmlns:xlink="http://www.w3.org/1999/xlink" viewBox="0 0 100 100"><defs><style>.cls-1{fill:none;}.cls-2{fill:#fff;}.cls-3{clip-path:url(#clip-path);}.cls-4{fill:#dadcd4;}.cls-5{fill:#c0dcb2;}.cls-6{fill:#90bc7f;}.cls-7{fill:#b0b2a5;}.cls-8{fill:#8fbe7b;}.cls-9{fill:#51893e;}.cls-10{fill:#787b69;}.cls-11{fill:#7db168;}.cls-12{fill:#cfd0c8;}</style><clipPath id="clip-path"><rect class="cls-1" width="100" height="100"/></clipPath></defs><g id="Layer_2" data-name="Layer 2"><g id="Layer_1-2" data-name="Layer 1"><path class="cls-2" d="M50,100A50,50,0,1,0,0,50a50,50,0,0,0,50,50"/><path class="cls-4" d="M70.4,36a4.85,4.85,0,0,0-4.85-4.84,5.54,5.54,0,0,0-.81.07,5,5,0,0,0-7.63-3A5.62,5.62,0,0,0,46.77,31.2h-.05a4.84,4.84,0,1,0,0,9.68H65.55A4.85,4.85,0,0,0,70.4,36"/><path class="cls-5" d="M16.52,40.06A17.34,17.34,0,0,0,33.86,57.41l1.21-16.52L33.86,22.72A17.34,17.34,0,0,0,16.52,40.06"/><path class="cls-6" d="M33.86,22.72V57.41a17.35,17.35,0,1,0,0-34.69"/><rect class="cls-7" x="75.87" y="61.55" width="3.85" height="15.74"/><path class="cls-6" d="M83.48,63.16V57.23a7.18,7.18,0,0,0-7.18-7.17H61.72l-1.29,6.55,1.29,6.55Z"/><rect class="cls-7" x="43.71" y="61.55" width="3.85" height="15.74"/><path class="cls-5" d="M40,57.23v5.92H61.72V50.06H47.13A7.18,7.18,0,0,0,40,57.23"/><polygon class="cls-6" points="83.48 71.12 83.48 67.27 61.72 67.27 60.44 69.19 61.72 71.12 83.48 71.12"/><rect class="cls-5" x="39.96" y="67.26" width="21.76" height="3.85"/><path class="cls-8" d="M16.52,40.06A17.34,17.34,0,0,0,33.86,57.41l1.21-16.52L33.86,22.72A17.34,17.34,0,0,0,16.52,40.06"/><path class="cls-9" d="M33.86,22.72V57.41a17.35,17.35,0,1,0,0-34.69"/><rect class="cls-10" x="75.87" y="61.55" width="3.85" height="15.74"/><path class="cls-9" d="M83.48,63.16V57.23a7.18,7.18,0,0,0-7.18-7.17H61.72l-1.29,6.55,1.29,6.55Z"/><rect class="cls-10" x="43.71" y="61.55" width="3.85" height="15.74"/><path class="cls-11" d="M40,57.23v5.92H61.72V50.06H47.13A7.18,7.18,0,0,0,40,57.23"/><polygon class="cls-9" points="83.48 71.12 83.48 67.27 61.72 67.27 60.44 69.19 61.72 71.12 83.48 71.12"/><rect class="cls-11" x="39.96" y="67.26" width="21.76" height="3.85"/><polygon class="cls-12" points="37.44 38.39 34.11 41.73 30.77 38.39 27.99 41.18 32.14 45.33 32.14 77.28 34.11 77.28 35.31 77.28 36.08 77.28 36.08 45.33 40.23 41.18 37.44 38.39"/></g></g></svg>
