<?xml version="1.0" encoding="UTF-8"?>
<svg xmlns="http://www.w3.org/2000/svg" viewBox="0 0 100 100"><defs><style>.cls-1{isolation:isolate;}.cls-2{fill:#fff;}.cls-3{mix-blend-mode:multiply;}.cls-4{fill:#87c4bf;}.cls-5{fill:#dadcd4;}.cls-6{fill:#b0b2a5;}.cls-7{fill:#42918b;}</style></defs><g class="cls-1"><g id="Layer_2" data-name="Layer 2"><g id="Layer_1-2" data-name="Layer 1"><path class="cls-2" d="M50,100A50,50,0,1,0,0,50a50,50,0,0,0,50,50"/><g class="cls-3"><path class="cls-4" d="M77.28,67V65.38a12.31,12.31,0,0,0-6.94-11l-1.76-.93s-.1,0-.14-.07a13.61,13.61,0,0,1-2.78-1.82,10.86,10.86,0,0,1-1.1-1,14.87,14.87,0,0,1-3.05-4.35,13.9,13.9,0,0,1-1.06-3.19,18.57,18.57,0,0,1-.3-5.77H57.79A12,12,0,0,1,49,33.29c-1.66-1.8-2.3-4.12-2.6-6.74a6.76,6.76,0,0,0-7-6l-.8,0-7,9.62h0l-7.29,10L35,48.8h0L49,60.34,57.33,67Z"/></g><polygon class="cls-5" points="77.28 73.68 77.28 67.04 57.33 67.04 48.96 60.34 34.98 48.79 34.98 48.8 24.32 40.27 20.64 45.8 48.96 68.83 55 73.68 77.28 73.68"/><polygon class="cls-6" points="77.28 73.68 77.28 67.04 57.33 67.04 48.96 60.34 48.96 68.83 55 73.68 77.28 73.68"/><path class="cls-7" d="M35,48.8,24.27,40.23l7.29-10,1.37,1.53a14.65,14.65,0,0,1,2.84,14.89Z"/><rect class="cls-6" x="30.71" y="70.36" width="16.6" height="3.32"/><rect class="cls-6" x="20.64" y="63.72" width="16.6" height="3.32"/><path class="cls-7" d="M77.28,67V65.38a12.31,12.31,0,0,0-6.94-11l-1.76-.93s-.1,0-.14-.07a13.61,13.61,0,0,1-2.78-1.82,10.86,10.86,0,0,1-1.1-1,14.87,14.87,0,0,1-3.05-4.35,13.9,13.9,0,0,1-1.06-3.19,18.57,18.57,0,0,1-.3-5.77H57.79A12,12,0,0,1,49,33.29V60.34L57.33,67Z"/><path class="cls-5" d="M60.45,42.94a13.9,13.9,0,0,0,1.06,3.19l-7.14,2.79L53.14,45.8Z"/><path class="cls-5" d="M62.47,47.89a14.12,14.12,0,0,0,2.09,2.59l-4.68,4.65L57.56,52.8Z"/><path class="cls-5" d="M65.66,51.51a13.61,13.61,0,0,0,2.78,1.82l-3,6.14L62.4,58Z"/></g></g></g></svg>
