<?xml version="1.0" encoding="iso-8859-1"?>
<!-- Generator: Adobe Illustrator 19.0.0, SVG Export Plug-In . SVG Version: 6.00 Build 0)  -->
<svg version="1.1" id="Capa_1" xmlns="http://www.w3.org/2000/svg" xmlns:xlink="http://www.w3.org/1999/xlink" x="0px" y="0px"
	 viewBox="0 0 114.872 114.872" style="enable-background:new 0 0 114.872 114.872;" xml:space="preserve">
<g>
	<path d="M97.856,49.821c0.426-2.44,0.661-4.95,0.661-7.516C98.517,18.979,80.088,0,57.436,0C34.783,0,16.353,18.979,16.353,42.305
		c0,2.566,0.236,5.074,0.663,7.516c-3.567,2.278-5.939,6.261-5.939,10.81v41.415c0,7.084,5.743,12.826,12.825,12.826h67.067
		c7.08,0,12.822-5.742,12.822-12.826h0.004V60.631C103.795,56.083,101.425,52.099,97.856,49.821z M63.095,85.983v9
		c0,3.128-2.534,5.662-5.661,5.662c-3.127,0-5.661-2.534-5.661-5.662v-9.004c-3.631-2.001-6.094-5.862-6.094-10.302
		c0-6.492,5.263-11.756,11.757-11.756s11.758,5.264,11.758,11.756C69.194,80.119,66.729,83.983,63.095,85.983z M82.886,47.804
		H31.985c-0.349-1.775-0.535-3.616-0.535-5.499c0-15.003,11.657-27.208,25.986-27.208c14.328,0,25.984,12.204,25.984,27.208
		C83.42,44.188,83.236,46.029,82.886,47.804z"/>
</g>
<g>
</g>
<g>
</g>
<g>
</g>
<g>
</g>
<g>
</g>
<g>
</g>
<g>
</g>
<g>
</g>
<g>
</g>
<g>
</g>
<g>
</g>
<g>
</g>
<g>
</g>
<g>
</g>
<g>
</g>
</svg>
